<svg width="78" height="78" viewBox="0 0 78 78" fill="none" xmlns="http://www.w3.org/2000/svg">
<path d="M46.6667 77.3342H8.33337C7.31705 77.3695 6.30433 77.1954 5.35819 76.8226C4.41205 76.4498 3.55272 75.8864 2.83364 75.1673C2.11456 74.4482 1.55111 73.5889 1.17832 72.6427C0.805536 71.6966 0.631387 70.6839 0.666704 69.6676V31.3342C0.631387 30.3179 0.805536 29.3052 1.17832 28.359C1.55111 27.4129 2.11456 26.5536 2.83364 25.8345C3.55272 25.1154 4.41205 24.552 5.35819 24.1792C6.30433 23.8064 7.31705 23.6322 8.33337 23.6676H23.6667V8.33423C23.6314 7.31791 23.8055 6.30519 24.1783 5.35905C24.5511 4.41291 25.1146 3.55358 25.8336 2.8345C26.5527 2.11542 27.4121 1.55197 28.3582 1.17918C29.3043 0.806391 30.317 0.632241 31.3334 0.667559H69.6667C70.683 0.632241 71.6957 0.806391 72.6419 1.17918C73.588 1.55197 74.4474 2.11542 75.1664 2.8345C75.8855 3.55358 76.449 4.41291 76.8217 5.35905C77.1945 6.30519 77.3687 7.31791 77.3334 8.33423V46.6676C77.3681 47.6837 77.1936 48.6962 76.8206 49.6421C76.4476 50.588 75.8841 51.4471 75.1652 52.166C74.4462 52.885 73.5871 53.4485 72.6412 53.8214C71.6953 54.1944 70.6829 54.369 69.6667 54.3342H54.3334V69.6676C54.3681 70.6837 54.1936 71.6962 53.8206 72.6421C53.4476 73.588 52.8841 74.4471 52.1652 75.166C51.4462 75.885 50.5871 76.4485 49.6412 76.8214C48.6953 77.1944 47.6829 77.369 46.6667 77.3342ZM8.33337 31.3342V69.6676H46.6667V54.3342H31.3334C30.3172 54.369 29.3047 54.1944 28.3588 53.8214C27.413 53.4485 26.5539 52.885 25.8349 52.166C25.1159 51.4471 24.5525 50.588 24.1795 49.6421C23.8065 48.6962 23.632 47.6837 23.6667 46.6676V31.3342H8.33337ZM31.3334 8.33423V46.6676H69.6667V8.33423H31.3334Z" fill="#68EAFF"/>
</svg>
