<svg width="673" height="562" viewBox="0 0 673 562" fill="none" xmlns="http://www.w3.org/2000/svg">
<path d="M95.5934 86.2978H0.672V0.503432H95.5934V86.2978ZM95.5934 562H0.672V167.346H95.5934V562ZM630.439 348.062H330.341V252.41H630.439V348.062ZM672.789 133.393H292.373V562H197.451V86.2978C197.451 79.7263 198.668 73.5199 201.102 67.6786C203.536 61.8373 206.822 56.7261 210.959 52.3451C215.34 47.9641 220.452 44.5567 226.293 42.1228C232.134 39.6889 238.462 38.472 245.277 38.472H672.789V133.393Z" fill="url(#paint0_radial_223_19)"/>
<path d="M95.5934 86.2978V91.1542H100.45V86.2978H95.5934ZM0.672 86.2978H-4.18446V91.1542H0.672V86.2978ZM0.672 0.503432V-4.35303H-4.18446V0.503432H0.672ZM95.5934 0.503432H100.45V-4.35303H95.5934V0.503432ZM95.5934 562V566.856H100.45V562H95.5934ZM0.672 562H-4.18446V566.856H0.672V562ZM0.672 167.346V162.49H-4.18446V167.346H0.672ZM95.5934 167.346H100.45V162.49H95.5934V167.346ZM95.5934 81.4413H0.672V91.1542H95.5934V81.4413ZM5.52846 86.2978V0.503432H-4.18446V86.2978H5.52846ZM0.672 5.35989H95.5934V-4.35303H0.672V5.35989ZM90.7369 0.503432V86.2978H100.45V0.503432H90.7369ZM95.5934 557.144H0.672V566.856H95.5934V557.144ZM5.52846 562V167.346H-4.18446V562H5.52846ZM0.672 172.203H95.5934V162.49H0.672V172.203ZM90.7369 167.346V562H100.45V167.346H90.7369ZM630.439 348.062V352.918H635.295V348.062H630.439ZM330.341 348.062H325.485V352.918H330.341V348.062ZM330.341 252.41V247.554H325.485V252.41H330.341ZM630.439 252.41H635.295V247.554H630.439V252.41ZM672.789 133.393V138.25H677.645V133.393H672.789ZM292.373 133.393V128.537H287.516V133.393H292.373ZM292.373 562V566.856H297.229V562H292.373ZM197.451 562H192.595V566.856H197.451V562ZM210.959 52.3451L207.525 48.9111L207.476 48.9601L207.429 49.0106L210.959 52.3451ZM672.789 38.472H677.645V33.6155H672.789V38.472ZM630.439 343.205H330.341V352.918H630.439V343.205ZM335.198 348.062V252.41H325.485V348.062H335.198ZM330.341 257.267H630.439V247.554H330.341V257.267ZM625.582 252.41V348.062H635.295V252.41H625.582ZM672.789 128.537H292.373V138.25H672.789V128.537ZM287.516 133.393V562H297.229V133.393H287.516ZM292.373 557.144H197.451V566.856H292.373V557.144ZM202.308 562V86.2978H192.595V562H202.308ZM202.308 86.2978C202.308 80.3423 203.407 74.7731 205.585 69.5464L196.619 65.8107C193.929 72.2667 192.595 79.1103 192.595 86.2978H202.308ZM205.585 69.5464C207.804 64.2201 210.776 59.6123 214.49 55.6797L207.429 49.0106C202.868 53.84 199.268 59.4544 196.619 65.8107L205.585 69.5464ZM214.393 55.7792C218.316 51.8564 222.892 48.8009 228.161 46.6057L224.425 37.6399C218.011 40.3124 212.365 44.0718 207.525 48.9111L214.393 55.7792ZM228.161 46.6057C233.366 44.4369 239.054 43.3285 245.277 43.3285V33.6155C237.871 33.6155 230.902 34.941 224.425 37.6399L228.161 46.6057ZM245.277 43.3285H672.789V33.6155H245.277V43.3285ZM667.932 38.472V133.393H677.645V38.472H667.932Z" fill="#68EAFF"/>
<defs>
<radialGradient id="paint0_radial_223_19" cx="0" cy="0" r="1" gradientUnits="userSpaceOnUse" gradientTransform="translate(-55 614.876) rotate(-51.3804) scale(787.97 934.148)">
<stop stop-color="#C6C6C6"/>
<stop offset="0.646623" stop-color="white"/>
</radialGradient>
</defs>
</svg>
