<svg width="60" height="60" viewBox="0 0 60 60" fill="none" xmlns="http://www.w3.org/2000/svg">
<g clip-path="url(#clip0_744_1469)">
<path d="M51.1125 51.1331H42.2381V37.2075C42.2381 33.8869 42.1688 29.6194 37.5975 29.6194C32.97 29.6194 32.265 33.2213 32.265 36.9619V51.1313H23.3794V22.4981H31.9144V26.4038H32.0288C33.2213 24.1481 36.1219 21.7763 40.4494 21.7763C49.4513 21.7763 51.1219 27.7031 51.1219 35.4094V51.1313L51.1125 51.1331ZM13.3406 18.585C12.6624 18.5852 11.9908 18.4517 11.3642 18.192C10.7377 17.9323 10.1686 17.5515 9.68941 17.0715C9.21026 16.5914 8.83052 16.0216 8.57194 15.3946C8.31336 14.7676 8.18102 14.0957 8.1825 13.4175C8.18361 12.3967 8.48739 11.3991 9.05543 10.5509C9.62346 9.70265 10.4302 9.04192 11.3738 8.65221C12.3173 8.26249 13.3552 8.16129 14.3562 8.3614C15.3573 8.56151 16.2765 9.05395 16.9977 9.77645C17.7189 10.4989 18.2096 11.4191 18.4079 12.4205C18.6062 13.4219 18.5031 14.4596 18.1117 15.4024C17.7203 16.3452 17.0581 17.1508 16.2088 17.7173C15.3596 18.2838 14.3615 18.5857 13.3406 18.585V18.585ZM17.7919 51.1331H8.8875V22.5H17.7919V51.1331ZM55.5675 0H4.425C1.98187 0 0 1.93312 0 4.32563V55.6763C0 58.0688 1.98187 60.0019 4.425 60.0019H55.5581C57.9975 60.0019 60 58.0688 60 55.6763V4.32563C60 1.93312 57.9975 0 55.5581 0H55.5675Z" fill="#68EAFF"/>
</g>
<defs>
<clipPath id="clip0_744_1469">
<rect width="60" height="60" fill="white"/>
</clipPath>
</defs>
</svg>
