<svg width="60" height="60" viewBox="0 0 60 60" fill="none" xmlns="http://www.w3.org/2000/svg">
<path d="M56.25 30C56.25 36.9375 55.125 42.5625 53.625 42.5625C52.125 42.5625 51 36.9375 51 30C51 23.0625 52.125 17.4375 53.625 17.4375C55.125 17.4375 56.25 23.0625 56.25 30ZM49.6875 30C49.6875 37.6875 46.3125 44.0625 42.375 44.0625C38.4375 44.0625 35.0625 37.6875 35.0625 30C35.0625 22.3125 38.4375 15.9375 42.375 15.9375C46.3125 15.9375 49.6875 22.3125 49.6875 30ZM33.375 30C33.375 38.25 26.8125 45 18.5625 45C10.3125 45 3.75 38.25 3.75 30C3.75 21.75 10.3125 15 18.5625 15C26.8125 15 33.375 21.75 33.375 30Z" fill="#68EAFF"/>
</svg>
